<mxfile host="app.diagrams.net" modified="2024-04-18T13:15:55.035Z" agent="Mozilla/5.0 (Windows NT 10.0; Win64; x64) AppleWebKit/537.36 (KHTML, like Gecko) Chrome/123.0.0.0 Safari/537.36 Edg/123.0.0.0" etag="OAbPObQJwKuNJKZJdFb0" version="22.1.16" type="device">
  <diagram id="C5RBs43oDa-KdzZeNtuy" name="Page-1">
    <mxGraphModel dx="1166" dy="629" grid="1" gridSize="10" guides="1" tooltips="1" connect="1" arrows="1" fold="1" page="1" pageScale="1" pageWidth="827" pageHeight="1169" math="0" shadow="0">
      <root>
        <mxCell id="WIyWlLk6GJQsqaUBKTNV-0" />
        <mxCell id="WIyWlLk6GJQsqaUBKTNV-1" parent="WIyWlLk6GJQsqaUBKTNV-0" />
        <mxCell id="zkfFHV4jXpPFQw0GAbJ--0" value="TravelPackage" style="swimlane;fontStyle=2;align=center;verticalAlign=top;childLayout=stackLayout;horizontal=1;startSize=26;horizontalStack=0;resizeParent=1;resizeLast=0;collapsible=1;marginBottom=0;rounded=0;shadow=0;strokeWidth=1;" parent="WIyWlLk6GJQsqaUBKTNV-1" vertex="1">
          <mxGeometry x="10" y="20" width="160" height="170" as="geometry">
            <mxRectangle x="230" y="140" width="160" height="26" as="alternateBounds" />
          </mxGeometry>
        </mxCell>
        <mxCell id="zkfFHV4jXpPFQw0GAbJ--1" value="String Name" style="text;align=left;verticalAlign=top;spacingLeft=4;spacingRight=4;overflow=hidden;rotatable=0;points=[[0,0.5],[1,0.5]];portConstraint=eastwest;" parent="zkfFHV4jXpPFQw0GAbJ--0" vertex="1">
          <mxGeometry y="26" width="160" height="26" as="geometry" />
        </mxCell>
        <mxCell id="zkfFHV4jXpPFQw0GAbJ--2" value="int PassengerCapacity" style="text;align=left;verticalAlign=top;spacingLeft=4;spacingRight=4;overflow=hidden;rotatable=0;points=[[0,0.5],[1,0.5]];portConstraint=eastwest;rounded=0;shadow=0;html=0;" parent="zkfFHV4jXpPFQw0GAbJ--0" vertex="1">
          <mxGeometry y="52" width="160" height="26" as="geometry" />
        </mxCell>
        <mxCell id="zkfFHV4jXpPFQw0GAbJ--3" value="List&lt;Destination&gt; itinerary" style="text;align=left;verticalAlign=top;spacingLeft=4;spacingRight=4;overflow=hidden;rotatable=0;points=[[0,0.5],[1,0.5]];portConstraint=eastwest;rounded=0;shadow=0;html=0;" parent="zkfFHV4jXpPFQw0GAbJ--0" vertex="1">
          <mxGeometry y="78" width="160" height="26" as="geometry" />
        </mxCell>
        <mxCell id="zkfFHV4jXpPFQw0GAbJ--5" value="List&lt;Passenger&gt; passengers" style="text;align=left;verticalAlign=top;spacingLeft=4;spacingRight=4;overflow=hidden;rotatable=0;points=[[0,0.5],[1,0.5]];portConstraint=eastwest;" parent="zkfFHV4jXpPFQw0GAbJ--0" vertex="1">
          <mxGeometry y="104" width="160" height="30" as="geometry" />
        </mxCell>
        <mxCell id="zkfFHV4jXpPFQw0GAbJ--6" value="Printer Class" style="swimlane;fontStyle=0;align=center;verticalAlign=top;childLayout=stackLayout;horizontal=1;startSize=26;horizontalStack=0;resizeParent=1;resizeLast=0;collapsible=1;marginBottom=0;rounded=0;shadow=0;strokeWidth=1;" parent="WIyWlLk6GJQsqaUBKTNV-1" vertex="1">
          <mxGeometry x="10" y="920" width="290" height="172" as="geometry">
            <mxRectangle x="130" y="380" width="160" height="26" as="alternateBounds" />
          </mxGeometry>
        </mxCell>
        <mxCell id="R1oYeGZb7CX_wbCVFz4h-157" value="printDestinations(TravelPackage)" style="rounded=0;whiteSpace=wrap;html=1;" vertex="1" parent="zkfFHV4jXpPFQw0GAbJ--6">
          <mxGeometry y="26" width="290" height="24" as="geometry" />
        </mxCell>
        <mxCell id="R1oYeGZb7CX_wbCVFz4h-158" value="printActivityDetail(List&amp;lt;Activity&amp;gt;)" style="rounded=0;whiteSpace=wrap;html=1;" vertex="1" parent="zkfFHV4jXpPFQw0GAbJ--6">
          <mxGeometry y="50" width="290" height="20" as="geometry" />
        </mxCell>
        <mxCell id="R1oYeGZb7CX_wbCVFz4h-161" value="printActivityDetail(TravelPackage)" style="rounded=0;whiteSpace=wrap;html=1;" vertex="1" parent="zkfFHV4jXpPFQw0GAbJ--6">
          <mxGeometry y="70" width="290" height="24" as="geometry" />
        </mxCell>
        <mxCell id="R1oYeGZb7CX_wbCVFz4h-162" value="printDetailsOfAllPassengers(List&amp;lt;Passenger&amp;gt;)" style="rounded=0;whiteSpace=wrap;html=1;" vertex="1" parent="zkfFHV4jXpPFQw0GAbJ--6">
          <mxGeometry y="94" width="290" height="26" as="geometry" />
        </mxCell>
        <mxCell id="R1oYeGZb7CX_wbCVFz4h-181" value="printDetailsOfAllPassengers(List&amp;lt;Activity&amp;gt;, Passengerype)" style="rounded=0;whiteSpace=wrap;html=1;" vertex="1" parent="zkfFHV4jXpPFQw0GAbJ--6">
          <mxGeometry y="120" width="290" height="26" as="geometry" />
        </mxCell>
        <mxCell id="R1oYeGZb7CX_wbCVFz4h-183" value="printAvailableActivities(Travel Package)" style="rounded=0;whiteSpace=wrap;html=1;" vertex="1" parent="zkfFHV4jXpPFQw0GAbJ--6">
          <mxGeometry y="146" width="290" height="26" as="geometry" />
        </mxCell>
        <mxCell id="zkfFHV4jXpPFQw0GAbJ--17" value="Destination" style="swimlane;fontStyle=0;align=center;verticalAlign=top;childLayout=stackLayout;horizontal=1;startSize=26;horizontalStack=0;resizeParent=1;resizeLast=0;collapsible=1;marginBottom=0;rounded=0;shadow=0;strokeWidth=1;" parent="WIyWlLk6GJQsqaUBKTNV-1" vertex="1">
          <mxGeometry x="580" y="30" width="192" height="140" as="geometry">
            <mxRectangle x="550" y="140" width="160" height="26" as="alternateBounds" />
          </mxGeometry>
        </mxCell>
        <mxCell id="zkfFHV4jXpPFQw0GAbJ--19" value="String Name" style="text;align=left;verticalAlign=top;spacingLeft=4;spacingRight=4;overflow=hidden;rotatable=0;points=[[0,0.5],[1,0.5]];portConstraint=eastwest;rounded=0;shadow=0;html=0;" parent="zkfFHV4jXpPFQw0GAbJ--17" vertex="1">
          <mxGeometry y="26" width="192" height="26" as="geometry" />
        </mxCell>
        <mxCell id="zkfFHV4jXpPFQw0GAbJ--18" value="List&lt;Activity&gt; activities" style="text;align=left;verticalAlign=top;spacingLeft=4;spacingRight=4;overflow=hidden;rotatable=0;points=[[0,0.5],[1,0.5]];portConstraint=eastwest;" parent="zkfFHV4jXpPFQw0GAbJ--17" vertex="1">
          <mxGeometry y="52" width="192" height="26" as="geometry" />
        </mxCell>
        <mxCell id="zkfFHV4jXpPFQw0GAbJ--20" value="List&lt;Passenger&gt;passengers" style="text;align=left;verticalAlign=top;spacingLeft=4;spacingRight=4;overflow=hidden;rotatable=0;points=[[0,0.5],[1,0.5]];portConstraint=eastwest;rounded=0;shadow=0;html=0;" parent="zkfFHV4jXpPFQw0GAbJ--17" vertex="1">
          <mxGeometry y="78" width="192" height="26" as="geometry" />
        </mxCell>
        <mxCell id="zkfFHV4jXpPFQw0GAbJ--21" value="TravelPackage travelPackage" style="text;align=left;verticalAlign=top;spacingLeft=4;spacingRight=4;overflow=hidden;rotatable=0;points=[[0,0.5],[1,0.5]];portConstraint=eastwest;rounded=0;shadow=0;html=0;" parent="zkfFHV4jXpPFQw0GAbJ--17" vertex="1">
          <mxGeometry y="104" width="192" height="26" as="geometry" />
        </mxCell>
        <mxCell id="R1oYeGZb7CX_wbCVFz4h-10" value="Passenger (Interface)" style="rounded=0;whiteSpace=wrap;html=1;" vertex="1" parent="WIyWlLk6GJQsqaUBKTNV-1">
          <mxGeometry x="210" y="460" width="170" height="30" as="geometry" />
        </mxCell>
        <mxCell id="R1oYeGZb7CX_wbCVFz4h-11" style="edgeStyle=orthogonalEdgeStyle;rounded=0;orthogonalLoop=1;jettySize=auto;html=1;exitX=0.5;exitY=1;exitDx=0;exitDy=0;" edge="1" parent="WIyWlLk6GJQsqaUBKTNV-1">
          <mxGeometry relative="1" as="geometry">
            <mxPoint x="440" y="390" as="sourcePoint" />
            <mxPoint x="440" y="390" as="targetPoint" />
          </mxGeometry>
        </mxCell>
        <mxCell id="R1oYeGZb7CX_wbCVFz4h-59" value="Gold Passenger" style="swimlane;fontStyle=0;align=center;verticalAlign=top;childLayout=stackLayout;horizontal=1;startSize=26;horizontalStack=0;resizeParent=1;resizeLast=0;collapsible=1;marginBottom=0;rounded=0;shadow=0;strokeWidth=1;" vertex="1" parent="WIyWlLk6GJQsqaUBKTNV-1">
          <mxGeometry x="240" y="600" width="150" height="220" as="geometry">
            <mxRectangle x="130" y="380" width="160" height="26" as="alternateBounds" />
          </mxGeometry>
        </mxCell>
        <mxCell id="R1oYeGZb7CX_wbCVFz4h-60" value="String Name" style="text;align=left;verticalAlign=top;spacingLeft=4;spacingRight=4;overflow=hidden;rotatable=0;points=[[0,0.5],[1,0.5]];portConstraint=eastwest;" vertex="1" parent="R1oYeGZb7CX_wbCVFz4h-59">
          <mxGeometry y="26" width="150" height="26" as="geometry" />
        </mxCell>
        <mxCell id="R1oYeGZb7CX_wbCVFz4h-61" value="int PassengerNo" style="text;align=left;verticalAlign=top;spacingLeft=4;spacingRight=4;overflow=hidden;rotatable=0;points=[[0,0.5],[1,0.5]];portConstraint=eastwest;rounded=0;shadow=0;html=0;" vertex="1" parent="R1oYeGZb7CX_wbCVFz4h-59">
          <mxGeometry y="52" width="150" height="28" as="geometry" />
        </mxCell>
        <mxCell id="R1oYeGZb7CX_wbCVFz4h-62" value="int PassengerNo" style="text;align=left;verticalAlign=top;spacingLeft=4;spacingRight=4;overflow=hidden;rotatable=0;points=[[0,0.5],[1,0.5]];portConstraint=eastwest;rounded=0;shadow=0;html=0;" vertex="1" parent="R1oYeGZb7CX_wbCVFz4h-59">
          <mxGeometry y="80" width="150" height="26" as="geometry" />
        </mxCell>
        <mxCell id="R1oYeGZb7CX_wbCVFz4h-63" value="Destination destination" style="text;align=left;verticalAlign=top;spacingLeft=4;spacingRight=4;overflow=hidden;rotatable=0;points=[[0,0.5],[1,0.5]];portConstraint=eastwest;" vertex="1" parent="R1oYeGZb7CX_wbCVFz4h-59">
          <mxGeometry y="106" width="150" height="26" as="geometry" />
        </mxCell>
        <mxCell id="R1oYeGZb7CX_wbCVFz4h-64" value="double Balance" style="text;align=left;verticalAlign=top;spacingLeft=4;spacingRight=4;overflow=hidden;rotatable=0;points=[[0,0.5],[1,0.5]];portConstraint=eastwest;" vertex="1" parent="R1oYeGZb7CX_wbCVFz4h-59">
          <mxGeometry y="132" width="150" height="28" as="geometry" />
        </mxCell>
        <mxCell id="R1oYeGZb7CX_wbCVFz4h-119" value="" style="endArrow=none;html=1;rounded=0;" edge="1" parent="R1oYeGZb7CX_wbCVFz4h-59" target="R1oYeGZb7CX_wbCVFz4h-64">
          <mxGeometry width="50" height="50" relative="1" as="geometry">
            <mxPoint y="134" as="sourcePoint" />
            <mxPoint x="160.1500000000001" y="110.832" as="targetPoint" />
          </mxGeometry>
        </mxCell>
        <mxCell id="R1oYeGZb7CX_wbCVFz4h-198" value="" style="endArrow=none;html=1;rounded=0;entryX=0.989;entryY=0.057;entryDx=0;entryDy=0;entryPerimeter=0;exitX=-0.015;exitY=0.111;exitDx=0;exitDy=0;exitPerimeter=0;" edge="1" parent="R1oYeGZb7CX_wbCVFz4h-59">
          <mxGeometry width="50" height="50" relative="1" as="geometry">
            <mxPoint x="-0.6000000000000001" y="161.08000000000004" as="sourcePoint" />
            <mxPoint x="149.99999999999991" y="160.0000000000001" as="targetPoint" />
          </mxGeometry>
        </mxCell>
        <mxCell id="R1oYeGZb7CX_wbCVFz4h-131" value="SignUpForActivity" style="text;strokeColor=none;align=center;fillColor=none;html=1;verticalAlign=middle;whiteSpace=wrap;rounded=0;" vertex="1" parent="R1oYeGZb7CX_wbCVFz4h-59">
          <mxGeometry y="160" width="150" height="20" as="geometry" />
        </mxCell>
        <mxCell id="R1oYeGZb7CX_wbCVFz4h-130" value="getter and setters" style="text;strokeColor=none;align=center;fillColor=none;html=1;verticalAlign=middle;whiteSpace=wrap;rounded=0;" vertex="1" parent="R1oYeGZb7CX_wbCVFz4h-59">
          <mxGeometry y="180" width="150" height="20" as="geometry" />
        </mxCell>
        <mxCell id="R1oYeGZb7CX_wbCVFz4h-73" value="Standard Passenger" style="swimlane;fontStyle=0;align=center;verticalAlign=top;childLayout=stackLayout;horizontal=1;startSize=26;horizontalStack=0;resizeParent=1;resizeLast=0;collapsible=1;marginBottom=0;rounded=0;shadow=0;strokeWidth=1;" vertex="1" parent="WIyWlLk6GJQsqaUBKTNV-1">
          <mxGeometry x="60" y="600" width="150" height="218" as="geometry">
            <mxRectangle x="130" y="380" width="160" height="26" as="alternateBounds" />
          </mxGeometry>
        </mxCell>
        <mxCell id="R1oYeGZb7CX_wbCVFz4h-74" value="String Name" style="text;align=left;verticalAlign=top;spacingLeft=4;spacingRight=4;overflow=hidden;rotatable=0;points=[[0,0.5],[1,0.5]];portConstraint=eastwest;" vertex="1" parent="R1oYeGZb7CX_wbCVFz4h-73">
          <mxGeometry y="26" width="150" height="26" as="geometry" />
        </mxCell>
        <mxCell id="R1oYeGZb7CX_wbCVFz4h-75" value="int PassengerNo" style="text;align=left;verticalAlign=top;spacingLeft=4;spacingRight=4;overflow=hidden;rotatable=0;points=[[0,0.5],[1,0.5]];portConstraint=eastwest;rounded=0;shadow=0;html=0;" vertex="1" parent="R1oYeGZb7CX_wbCVFz4h-73">
          <mxGeometry y="52" width="150" height="28" as="geometry" />
        </mxCell>
        <mxCell id="R1oYeGZb7CX_wbCVFz4h-76" value="int PassengerNo" style="text;align=left;verticalAlign=top;spacingLeft=4;spacingRight=4;overflow=hidden;rotatable=0;points=[[0,0.5],[1,0.5]];portConstraint=eastwest;rounded=0;shadow=0;html=0;" vertex="1" parent="R1oYeGZb7CX_wbCVFz4h-73">
          <mxGeometry y="80" width="150" height="26" as="geometry" />
        </mxCell>
        <mxCell id="R1oYeGZb7CX_wbCVFz4h-77" value="Destination destination" style="text;align=left;verticalAlign=top;spacingLeft=4;spacingRight=4;overflow=hidden;rotatable=0;points=[[0,0.5],[1,0.5]];portConstraint=eastwest;" vertex="1" parent="R1oYeGZb7CX_wbCVFz4h-73">
          <mxGeometry y="106" width="150" height="26" as="geometry" />
        </mxCell>
        <mxCell id="R1oYeGZb7CX_wbCVFz4h-78" value="double Balance" style="text;align=left;verticalAlign=top;spacingLeft=4;spacingRight=4;overflow=hidden;rotatable=0;points=[[0,0.5],[1,0.5]];portConstraint=eastwest;" vertex="1" parent="R1oYeGZb7CX_wbCVFz4h-73">
          <mxGeometry y="132" width="150" height="26" as="geometry" />
        </mxCell>
        <mxCell id="R1oYeGZb7CX_wbCVFz4h-120" value="" style="endArrow=none;html=1;rounded=0;" edge="1" parent="R1oYeGZb7CX_wbCVFz4h-73">
          <mxGeometry width="50" height="50" relative="1" as="geometry">
            <mxPoint y="160" as="sourcePoint" />
            <mxPoint x="150" y="160" as="targetPoint" />
          </mxGeometry>
        </mxCell>
        <mxCell id="R1oYeGZb7CX_wbCVFz4h-136" value="getter and setters" style="text;strokeColor=none;align=center;fillColor=none;html=1;verticalAlign=middle;whiteSpace=wrap;rounded=0;" vertex="1" parent="R1oYeGZb7CX_wbCVFz4h-73">
          <mxGeometry y="158" width="150" height="20" as="geometry" />
        </mxCell>
        <mxCell id="R1oYeGZb7CX_wbCVFz4h-137" value="SignUpForActivity" style="text;strokeColor=none;align=center;fillColor=none;html=1;verticalAlign=middle;whiteSpace=wrap;rounded=0;" vertex="1" parent="R1oYeGZb7CX_wbCVFz4h-73">
          <mxGeometry y="178" width="150" height="20" as="geometry" />
        </mxCell>
        <mxCell id="R1oYeGZb7CX_wbCVFz4h-81" value="" style="endArrow=classic;html=1;rounded=0;exitX=0.441;exitY=-0.007;exitDx=0;exitDy=0;exitPerimeter=0;" edge="1" parent="WIyWlLk6GJQsqaUBKTNV-1" source="R1oYeGZb7CX_wbCVFz4h-73">
          <mxGeometry width="50" height="50" relative="1" as="geometry">
            <mxPoint x="190" y="540" as="sourcePoint" />
            <mxPoint x="240" y="490" as="targetPoint" />
          </mxGeometry>
        </mxCell>
        <mxCell id="R1oYeGZb7CX_wbCVFz4h-82" value="" style="endArrow=classic;html=1;rounded=0;exitX=0.444;exitY=-0.001;exitDx=0;exitDy=0;exitPerimeter=0;entryX=0.578;entryY=0.987;entryDx=0;entryDy=0;entryPerimeter=0;" edge="1" parent="WIyWlLk6GJQsqaUBKTNV-1" source="R1oYeGZb7CX_wbCVFz4h-59" target="R1oYeGZb7CX_wbCVFz4h-10">
          <mxGeometry width="50" height="50" relative="1" as="geometry">
            <mxPoint x="270" y="540" as="sourcePoint" />
            <mxPoint x="320" y="490" as="targetPoint" />
            <Array as="points" />
          </mxGeometry>
        </mxCell>
        <mxCell id="R1oYeGZb7CX_wbCVFz4h-83" value="" style="endArrow=classic;html=1;rounded=0;exitX=0.5;exitY=0;exitDx=0;exitDy=0;" edge="1" parent="WIyWlLk6GJQsqaUBKTNV-1">
          <mxGeometry width="50" height="50" relative="1" as="geometry">
            <mxPoint x="510" y="610.0000000000002" as="sourcePoint" />
            <mxPoint x="354" y="490" as="targetPoint" />
          </mxGeometry>
        </mxCell>
        <mxCell id="R1oYeGZb7CX_wbCVFz4h-98" value="Activity" style="swimlane;fontStyle=0;align=center;verticalAlign=top;childLayout=stackLayout;horizontal=1;startSize=26;horizontalStack=0;resizeParent=1;resizeLast=0;collapsible=1;marginBottom=0;rounded=0;shadow=0;strokeWidth=1;" vertex="1" parent="WIyWlLk6GJQsqaUBKTNV-1">
          <mxGeometry x="430" y="260" width="170" height="230" as="geometry">
            <mxRectangle x="130" y="380" width="160" height="26" as="alternateBounds" />
          </mxGeometry>
        </mxCell>
        <mxCell id="R1oYeGZb7CX_wbCVFz4h-99" value="String Name" style="text;align=left;verticalAlign=top;spacingLeft=4;spacingRight=4;overflow=hidden;rotatable=0;points=[[0,0.5],[1,0.5]];portConstraint=eastwest;" vertex="1" parent="R1oYeGZb7CX_wbCVFz4h-98">
          <mxGeometry y="26" width="170" height="26" as="geometry" />
        </mxCell>
        <mxCell id="R1oYeGZb7CX_wbCVFz4h-100" value="String Description" style="text;align=left;verticalAlign=top;spacingLeft=4;spacingRight=4;overflow=hidden;rotatable=0;points=[[0,0.5],[1,0.5]];portConstraint=eastwest;rounded=0;shadow=0;html=0;" vertex="1" parent="R1oYeGZb7CX_wbCVFz4h-98">
          <mxGeometry y="52" width="170" height="28" as="geometry" />
        </mxCell>
        <mxCell id="R1oYeGZb7CX_wbCVFz4h-101" value="double cost" style="text;align=left;verticalAlign=top;spacingLeft=4;spacingRight=4;overflow=hidden;rotatable=0;points=[[0,0.5],[1,0.5]];portConstraint=eastwest;" vertex="1" parent="R1oYeGZb7CX_wbCVFz4h-98">
          <mxGeometry y="80" width="170" height="26" as="geometry" />
        </mxCell>
        <mxCell id="R1oYeGZb7CX_wbCVFz4h-102" value="int capacity" style="text;align=left;verticalAlign=top;spacingLeft=4;spacingRight=4;overflow=hidden;rotatable=0;points=[[0,0.5],[1,0.5]];portConstraint=eastwest;rounded=0;shadow=0;html=0;" vertex="1" parent="R1oYeGZb7CX_wbCVFz4h-98">
          <mxGeometry y="106" width="170" height="26" as="geometry" />
        </mxCell>
        <mxCell id="R1oYeGZb7CX_wbCVFz4h-103" value="int currentSpaceAvailable" style="text;align=left;verticalAlign=top;spacingLeft=4;spacingRight=4;overflow=hidden;rotatable=0;points=[[0,0.5],[1,0.5]];portConstraint=eastwest;" vertex="1" parent="R1oYeGZb7CX_wbCVFz4h-98">
          <mxGeometry y="132" width="170" height="26" as="geometry" />
        </mxCell>
        <mxCell id="R1oYeGZb7CX_wbCVFz4h-111" value="Destination destination" style="text;align=left;verticalAlign=top;spacingLeft=4;spacingRight=4;overflow=hidden;rotatable=0;points=[[0,0.5],[1,0.5]];portConstraint=eastwest;" vertex="1" parent="R1oYeGZb7CX_wbCVFz4h-98">
          <mxGeometry y="158" width="170" height="26" as="geometry" />
        </mxCell>
        <mxCell id="R1oYeGZb7CX_wbCVFz4h-112" value="List&lt;Passenger&gt;passengers" style="text;align=left;verticalAlign=top;spacingLeft=4;spacingRight=4;overflow=hidden;rotatable=0;points=[[0,0.5],[1,0.5]];portConstraint=eastwest;" vertex="1" parent="R1oYeGZb7CX_wbCVFz4h-98">
          <mxGeometry y="184" width="170" height="26" as="geometry" />
        </mxCell>
        <mxCell id="R1oYeGZb7CX_wbCVFz4h-104" style="edgeStyle=orthogonalEdgeStyle;rounded=0;orthogonalLoop=1;jettySize=auto;html=1;exitX=0.5;exitY=1;exitDx=0;exitDy=0;" edge="1" parent="WIyWlLk6GJQsqaUBKTNV-1">
          <mxGeometry relative="1" as="geometry">
            <mxPoint x="590" y="550" as="sourcePoint" />
            <mxPoint x="590" y="550" as="targetPoint" />
          </mxGeometry>
        </mxCell>
        <mxCell id="R1oYeGZb7CX_wbCVFz4h-113" value="" style="endArrow=classic;html=1;rounded=0;entryX=-0.019;entryY=0.029;entryDx=0;entryDy=0;entryPerimeter=0;" edge="1" parent="WIyWlLk6GJQsqaUBKTNV-1" source="zkfFHV4jXpPFQw0GAbJ--1" target="zkfFHV4jXpPFQw0GAbJ--19">
          <mxGeometry width="50" height="50" relative="1" as="geometry">
            <mxPoint x="312" y="150" as="sourcePoint" />
            <mxPoint x="362" y="100" as="targetPoint" />
          </mxGeometry>
        </mxCell>
        <mxCell id="R1oYeGZb7CX_wbCVFz4h-140" value="Premium Passenger" style="swimlane;fontStyle=0;align=center;verticalAlign=top;childLayout=stackLayout;horizontal=1;startSize=26;horizontalStack=0;resizeParent=1;resizeLast=0;collapsible=1;marginBottom=0;rounded=0;shadow=0;strokeWidth=1;" vertex="1" parent="WIyWlLk6GJQsqaUBKTNV-1">
          <mxGeometry x="430" y="600" width="150" height="220" as="geometry">
            <mxRectangle x="130" y="380" width="160" height="26" as="alternateBounds" />
          </mxGeometry>
        </mxCell>
        <mxCell id="R1oYeGZb7CX_wbCVFz4h-141" value="String Name" style="text;align=left;verticalAlign=top;spacingLeft=4;spacingRight=4;overflow=hidden;rotatable=0;points=[[0,0.5],[1,0.5]];portConstraint=eastwest;" vertex="1" parent="R1oYeGZb7CX_wbCVFz4h-140">
          <mxGeometry y="26" width="150" height="26" as="geometry" />
        </mxCell>
        <mxCell id="R1oYeGZb7CX_wbCVFz4h-142" value="int PassengerNo" style="text;align=left;verticalAlign=top;spacingLeft=4;spacingRight=4;overflow=hidden;rotatable=0;points=[[0,0.5],[1,0.5]];portConstraint=eastwest;rounded=0;shadow=0;html=0;" vertex="1" parent="R1oYeGZb7CX_wbCVFz4h-140">
          <mxGeometry y="52" width="150" height="28" as="geometry" />
        </mxCell>
        <mxCell id="R1oYeGZb7CX_wbCVFz4h-143" value="int PassengerNo" style="text;align=left;verticalAlign=top;spacingLeft=4;spacingRight=4;overflow=hidden;rotatable=0;points=[[0,0.5],[1,0.5]];portConstraint=eastwest;rounded=0;shadow=0;html=0;" vertex="1" parent="R1oYeGZb7CX_wbCVFz4h-140">
          <mxGeometry y="80" width="150" height="26" as="geometry" />
        </mxCell>
        <mxCell id="R1oYeGZb7CX_wbCVFz4h-144" value="Destination destination" style="text;align=left;verticalAlign=top;spacingLeft=4;spacingRight=4;overflow=hidden;rotatable=0;points=[[0,0.5],[1,0.5]];portConstraint=eastwest;" vertex="1" parent="R1oYeGZb7CX_wbCVFz4h-140">
          <mxGeometry y="106" width="150" height="54" as="geometry" />
        </mxCell>
        <mxCell id="R1oYeGZb7CX_wbCVFz4h-146" value="" style="endArrow=none;html=1;rounded=0;entryX=1.001;entryY=0.994;entryDx=0;entryDy=0;entryPerimeter=0;" edge="1" parent="R1oYeGZb7CX_wbCVFz4h-140">
          <mxGeometry width="50" height="50" relative="1" as="geometry">
            <mxPoint y="160" as="sourcePoint" />
            <mxPoint x="150.14999999999986" y="159.8320000000001" as="targetPoint" />
          </mxGeometry>
        </mxCell>
        <mxCell id="R1oYeGZb7CX_wbCVFz4h-147" value="getter and setters" style="text;strokeColor=none;align=center;fillColor=none;html=1;verticalAlign=middle;whiteSpace=wrap;rounded=0;" vertex="1" parent="R1oYeGZb7CX_wbCVFz4h-140">
          <mxGeometry y="160" width="150" height="20" as="geometry" />
        </mxCell>
        <mxCell id="R1oYeGZb7CX_wbCVFz4h-148" value="SignUpForActivity" style="text;strokeColor=none;align=center;fillColor=none;html=1;verticalAlign=middle;whiteSpace=wrap;rounded=0;" vertex="1" parent="R1oYeGZb7CX_wbCVFz4h-140">
          <mxGeometry y="180" width="150" height="20" as="geometry" />
        </mxCell>
        <mxCell id="R1oYeGZb7CX_wbCVFz4h-165" value="Adding Class" style="swimlane;fontStyle=0;align=center;verticalAlign=top;childLayout=stackLayout;horizontal=1;startSize=26;horizontalStack=0;resizeParent=1;resizeLast=0;collapsible=1;marginBottom=0;rounded=0;shadow=0;strokeWidth=1;" vertex="1" parent="WIyWlLk6GJQsqaUBKTNV-1">
          <mxGeometry x="380" y="950" width="330" height="122" as="geometry">
            <mxRectangle x="130" y="380" width="160" height="26" as="alternateBounds" />
          </mxGeometry>
        </mxCell>
        <mxCell id="R1oYeGZb7CX_wbCVFz4h-174" value="addingActivityToDestination(Destination, Activity)" style="text;html=1;strokeColor=none;fillColor=none;align=center;verticalAlign=middle;whiteSpace=wrap;rounded=0;" vertex="1" parent="R1oYeGZb7CX_wbCVFz4h-165">
          <mxGeometry y="26" width="330" height="24" as="geometry" />
        </mxCell>
        <mxCell id="R1oYeGZb7CX_wbCVFz4h-177" value="addPassengerToDestination(Destination, Passenger)" style="text;html=1;strokeColor=none;fillColor=none;align=center;verticalAlign=middle;whiteSpace=wrap;rounded=0;" vertex="1" parent="R1oYeGZb7CX_wbCVFz4h-165">
          <mxGeometry y="50" width="330" height="24" as="geometry" />
        </mxCell>
        <mxCell id="R1oYeGZb7CX_wbCVFz4h-178" value="addDestinationToTravelPackage(TravelPackage, Destination)" style="text;html=1;strokeColor=none;fillColor=none;align=center;verticalAlign=middle;whiteSpace=wrap;rounded=0;" vertex="1" parent="R1oYeGZb7CX_wbCVFz4h-165">
          <mxGeometry y="74" width="330" height="24" as="geometry" />
        </mxCell>
        <mxCell id="R1oYeGZb7CX_wbCVFz4h-179" value="addActivityToPassenger(Passenger, Activity)" style="text;html=1;strokeColor=none;fillColor=none;align=center;verticalAlign=middle;whiteSpace=wrap;rounded=0;" vertex="1" parent="R1oYeGZb7CX_wbCVFz4h-165">
          <mxGeometry y="98" width="330" height="24" as="geometry" />
        </mxCell>
        <mxCell id="R1oYeGZb7CX_wbCVFz4h-185" value="" style="endArrow=classic;html=1;rounded=0;exitX=0;exitY=0.5;exitDx=0;exitDy=0;entryX=0.5;entryY=0;entryDx=0;entryDy=0;" edge="1" parent="WIyWlLk6GJQsqaUBKTNV-1" source="zkfFHV4jXpPFQw0GAbJ--20" target="R1oYeGZb7CX_wbCVFz4h-10">
          <mxGeometry width="50" height="50" relative="1" as="geometry">
            <mxPoint x="300" y="300" as="sourcePoint" />
            <mxPoint x="270" y="220" as="targetPoint" />
            <Array as="points">
              <mxPoint x="240" y="121" />
            </Array>
          </mxGeometry>
        </mxCell>
        <mxCell id="R1oYeGZb7CX_wbCVFz4h-186" value="" style="endArrow=classic;html=1;rounded=0;entryX=0.645;entryY=0.002;entryDx=0;entryDy=0;entryPerimeter=0;exitX=0;exitY=0.5;exitDx=0;exitDy=0;" edge="1" parent="WIyWlLk6GJQsqaUBKTNV-1" source="R1oYeGZb7CX_wbCVFz4h-112" target="R1oYeGZb7CX_wbCVFz4h-10">
          <mxGeometry width="50" height="50" relative="1" as="geometry">
            <mxPoint x="420" y="460" as="sourcePoint" />
            <mxPoint x="370" y="300" as="targetPoint" />
            <Array as="points">
              <mxPoint x="350" y="400" />
            </Array>
          </mxGeometry>
        </mxCell>
        <mxCell id="R1oYeGZb7CX_wbCVFz4h-187" value="" style="endArrow=classic;html=1;rounded=0;exitX=1;exitY=0.5;exitDx=0;exitDy=0;" edge="1" parent="WIyWlLk6GJQsqaUBKTNV-1" source="R1oYeGZb7CX_wbCVFz4h-111">
          <mxGeometry width="50" height="50" relative="1" as="geometry">
            <mxPoint x="680" y="220" as="sourcePoint" />
            <mxPoint x="730" y="170" as="targetPoint" />
            <Array as="points">
              <mxPoint x="730" y="431" />
            </Array>
          </mxGeometry>
        </mxCell>
        <mxCell id="R1oYeGZb7CX_wbCVFz4h-188" value="" style="endArrow=classic;html=1;rounded=0;entryX=0.463;entryY=-0.015;entryDx=0;entryDy=0;entryPerimeter=0;exitX=0;exitY=0.5;exitDx=0;exitDy=0;" edge="1" parent="WIyWlLk6GJQsqaUBKTNV-1" source="zkfFHV4jXpPFQw0GAbJ--18" target="R1oYeGZb7CX_wbCVFz4h-98">
          <mxGeometry width="50" height="50" relative="1" as="geometry">
            <mxPoint x="300" y="380" as="sourcePoint" />
            <mxPoint x="350" y="330" as="targetPoint" />
            <Array as="points">
              <mxPoint x="509" y="95" />
            </Array>
          </mxGeometry>
        </mxCell>
        <mxCell id="R1oYeGZb7CX_wbCVFz4h-189" value="" style="endArrow=classic;html=1;rounded=0;entryX=1.017;entryY=0.259;entryDx=0;entryDy=0;entryPerimeter=0;exitX=0;exitY=0.874;exitDx=0;exitDy=0;exitPerimeter=0;" edge="1" parent="WIyWlLk6GJQsqaUBKTNV-1" source="zkfFHV4jXpPFQw0GAbJ--19" target="zkfFHV4jXpPFQw0GAbJ--2">
          <mxGeometry width="50" height="50" relative="1" as="geometry">
            <mxPoint x="570" y="80" as="sourcePoint" />
            <mxPoint x="180" y="80" as="targetPoint" />
          </mxGeometry>
        </mxCell>
        <mxCell id="R1oYeGZb7CX_wbCVFz4h-190" value="" style="endArrow=classic;html=1;rounded=0;" edge="1" parent="WIyWlLk6GJQsqaUBKTNV-1">
          <mxGeometry width="50" height="50" relative="1" as="geometry">
            <mxPoint x="30" y="850" as="sourcePoint" />
            <mxPoint x="30" y="190" as="targetPoint" />
          </mxGeometry>
        </mxCell>
        <mxCell id="R1oYeGZb7CX_wbCVFz4h-191" value="" style="endArrow=none;html=1;rounded=0;" edge="1" parent="WIyWlLk6GJQsqaUBKTNV-1">
          <mxGeometry width="50" height="50" relative="1" as="geometry">
            <mxPoint x="30" y="850" as="sourcePoint" />
            <mxPoint x="510" y="850" as="targetPoint" />
            <Array as="points">
              <mxPoint x="270" y="850" />
            </Array>
          </mxGeometry>
        </mxCell>
        <mxCell id="R1oYeGZb7CX_wbCVFz4h-192" value="" style="endArrow=none;html=1;rounded=0;" edge="1" parent="WIyWlLk6GJQsqaUBKTNV-1">
          <mxGeometry width="50" height="50" relative="1" as="geometry">
            <mxPoint x="130" y="850" as="sourcePoint" />
            <mxPoint x="130" y="820" as="targetPoint" />
          </mxGeometry>
        </mxCell>
        <mxCell id="R1oYeGZb7CX_wbCVFz4h-193" value="" style="endArrow=none;html=1;rounded=0;entryX=0.5;entryY=1;entryDx=0;entryDy=0;" edge="1" parent="WIyWlLk6GJQsqaUBKTNV-1" target="R1oYeGZb7CX_wbCVFz4h-59">
          <mxGeometry width="50" height="50" relative="1" as="geometry">
            <mxPoint x="315" y="850" as="sourcePoint" />
            <mxPoint x="260" y="810" as="targetPoint" />
            <Array as="points" />
          </mxGeometry>
        </mxCell>
        <mxCell id="R1oYeGZb7CX_wbCVFz4h-194" value="" style="endArrow=none;html=1;rounded=0;" edge="1" parent="WIyWlLk6GJQsqaUBKTNV-1">
          <mxGeometry width="50" height="50" relative="1" as="geometry">
            <mxPoint x="510" y="850" as="sourcePoint" />
            <mxPoint x="510" y="820" as="targetPoint" />
          </mxGeometry>
        </mxCell>
      </root>
    </mxGraphModel>
  </diagram>
</mxfile>
